<svg width="128" height="128" viewBox="0 0 128 128" fill="none" xmlns="http://www.w3.org/2000/svg">
<rect width="128" height="128" fill="#0B1120"/>
<path d="M40.5227 97.799C36.794 97.799 33.4169 96.8402 30.3913 94.9226C27.3871 92.9837 25.0007 90.1392 23.2322 86.3892C21.4851 82.6179 20.6115 77.9943 20.6115 72.5185C20.6115 66.8935 21.517 62.2166 23.3281 58.4879C25.1392 54.7379 27.5469 51.9361 30.5511 50.0824C33.5767 48.2074 36.8899 47.2699 40.4908 47.2699C43.2393 47.2699 45.5298 47.7386 47.3622 48.6761C49.2159 49.5923 50.7074 50.7429 51.8366 52.1278C52.9872 53.4915 53.8608 54.8338 54.4574 56.1548H54.8729V31.5455H68.456V97H55.0327V89.1378H54.4574C53.8182 90.5014 52.9126 91.8544 51.7408 93.1967C50.5902 94.5178 49.0881 95.6151 47.2344 96.4886C45.402 97.3622 43.1648 97.799 40.5227 97.799ZM44.8374 86.9645C47.032 86.9645 48.8857 86.3679 50.3984 85.1747C51.9325 83.9602 53.1044 82.2663 53.9141 80.093C54.745 77.9197 55.1605 75.3736 55.1605 72.4545C55.1605 69.5355 54.7557 67 53.946 64.848C53.1364 62.696 51.9645 61.0341 50.4304 59.8622C48.8963 58.6903 47.032 58.1044 44.8374 58.1044C42.6001 58.1044 40.7145 58.7116 39.1804 59.9261C37.6463 61.1406 36.4851 62.8239 35.6967 64.9759C34.9084 67.1278 34.5142 69.6207 34.5142 72.4545C34.5142 75.3097 34.9084 77.8345 35.6967 80.0291C36.5064 82.2024 37.6676 83.907 39.1804 85.1428C40.7145 86.3572 42.6001 86.9645 44.8374 86.9645Z" fill="white"/>
<path d="M105.762 47.9091V58.1364H76.1983V47.9091H105.762ZM82.91 36.1477H96.525V81.9148C96.525 83.1719 96.7168 84.152 97.1003 84.8551C97.4838 85.5369 98.0165 86.0163 98.6983 86.2933C99.4015 86.5703 100.211 86.7088 101.127 86.7088C101.767 86.7088 102.406 86.6555 103.045 86.549C103.684 86.4212 104.174 86.3253 104.515 86.2614L106.656 96.3928C105.975 96.6058 105.016 96.8509 103.78 97.1278C102.544 97.4261 101.042 97.6072 99.2736 97.6712C95.9924 97.799 93.1159 97.3622 90.6444 96.3608C88.1941 95.3594 86.2871 93.804 84.9235 91.6946C83.5598 89.5852 82.8887 86.9219 82.91 83.7045V36.1477Z" fill="#0EA5E9"/>
</svg>
