<svg width="100" height="100" viewBox="0 0 100 100" fill="none" xmlns="http://www.w3.org/2000/svg">
<rect width="100" height="100" fill="#0B1120"/>
<path d="M47.2614 72H31.7926V28.3636H47.3892C51.7784 28.3636 55.5568 29.2372 58.7244 30.9844C61.892 32.7173 64.3281 35.2102 66.0327 38.4631C67.7514 41.7159 68.6108 45.608 68.6108 50.1392C68.6108 54.6847 67.7514 58.5909 66.0327 61.858C64.3281 65.125 61.8778 67.6321 58.6818 69.3793C55.5 71.1264 51.6932 72 47.2614 72ZM41.0185 64.0952H46.8778C49.6051 64.0952 51.8991 63.6122 53.7599 62.6463C55.6349 61.6662 57.0412 60.1534 57.9787 58.108C58.9304 56.0483 59.4062 53.392 59.4062 50.1392C59.4062 46.9148 58.9304 44.2798 57.9787 42.2344C57.0412 40.1889 55.642 38.6832 53.7812 37.7173C51.9205 36.7514 49.6264 36.2685 46.8991 36.2685H41.0185V64.0952Z" fill="white"/>
</svg>
