<svg width="100" height="100" viewBox="0 0 100 100" fill="none" xmlns="http://www.w3.org/2000/svg">
<rect width="100" height="100" fill="#0B1120"/>
<path d="M34.6818 72.5327C32.196 72.5327 29.9446 71.8935 27.9276 70.6151C25.9247 69.3224 24.3338 67.4261 23.1548 64.9261C21.9901 62.4119 21.4077 59.3295 21.4077 55.679C21.4077 51.929 22.0114 48.8111 23.2188 46.3253C24.4261 43.8253 26.0313 41.9574 28.0341 40.7216C30.0511 39.4716 32.2599 38.8466 34.6605 38.8466C36.4929 38.8466 38.0199 39.1591 39.2415 39.7841C40.4773 40.3949 41.4716 41.1619 42.2244 42.0852C42.9915 42.9943 43.5739 43.8892 43.9716 44.7699H44.2486V28.3636H53.304V72H44.3551V66.7585H43.9716C43.5455 67.6676 42.9418 68.5696 42.1605 69.4645C41.3935 70.3452 40.392 71.0767 39.1562 71.6591C37.9347 72.2415 36.4432 72.5327 34.6818 72.5327ZM37.5582 65.3097C39.0213 65.3097 40.2571 64.9119 41.2656 64.1165C42.2884 63.3068 43.0696 62.1776 43.6094 60.7287C44.1634 59.2798 44.4403 57.5824 44.4403 55.6364C44.4403 53.6903 44.1705 52 43.6307 50.5653C43.0909 49.1307 42.3097 48.0227 41.2869 47.2415C40.2642 46.4602 39.0213 46.0696 37.5582 46.0696C36.0668 46.0696 34.8097 46.4744 33.7869 47.2841C32.7642 48.0937 31.9901 49.2159 31.4645 50.6506C30.9389 52.0852 30.6761 53.7472 30.6761 55.6364C30.6761 57.5398 30.9389 59.223 31.4645 60.6861C32.0043 62.1349 32.7784 63.2713 33.7869 64.0952C34.8097 64.9048 36.0668 65.3097 37.5582 65.3097Z" fill="white"/>
<path d="M78.1744 39.2727V46.0909H58.4656V39.2727H78.1744ZM62.94 31.4318H72.0167V61.9432C72.0167 62.7812 72.1445 63.4347 72.4002 63.9034C72.6559 64.358 73.011 64.6776 73.4656 64.8622C73.9343 65.0469 74.4741 65.1392 75.0849 65.1392C75.511 65.1392 75.9371 65.1037 76.3633 65.0327C76.7894 64.9474 77.1161 64.8835 77.3434 64.8409L78.771 71.5952C78.3164 71.7372 77.6772 71.9006 76.8533 72.0852C76.0295 72.2841 75.0281 72.4048 73.8491 72.4474C71.6616 72.5327 69.744 72.2415 68.0962 71.5739C66.4627 70.9062 65.1914 69.8693 64.2823 68.4631C63.3732 67.0568 62.9258 65.2812 62.94 63.1364V31.4318Z" fill="#0EA5E9"/>
</svg>
